{"title":"Barbie Mariposa And The Fairy Princess[Hindi-Eng-Tam]-DGrea8","uid":8894266,"size":908157411,"categoryP":"video","categoryS":"hd___movies","magnet":"?xt=urn:btih:e8472bba21ce0abf6edbdbde5981fdf721bb8c36&amp;dn=Barbie+Mariposa+And+The+Fairy+Princess%5BHindi-Eng-Tam%5D-DGrea8&amp;tr=udp%3A%2F%2Ftracker.openbittorrent.com%3A80&amp;tr=udp%3A%2F%2Fopen.demonii.com%3A1337&amp;tr=udp%3A%2F%2Ftracker.coppersurfer.tk%3A6969&amp;tr=udp%3A%2F%2Fexodus.desync.com%3A6969","seeders":1,"leechers":1,"uploader":"DGrea8","files":23,"time":1378662171,"description":"Barbie Mariposa And The Fairy Princess (2013)720p BDRip[Hindi-Eng-Tamil]AC3-DGrea8\n\n\n.:Cast Info:. \n\nCast: \nKelly Sheridan\t ...\tMariposa\nRest of cast listed alphabetically:\nAlistair Abell\t ...\tLord Gastrous\nJane Barr\t ...\tQueen Marabella\nKathleen Barr\t ...\tGwyllion / Anu\nMariee Devereux\t ...\tTalayla\nMaryke Hendrikse\t ...\tPrincess Catania\nAlessandro Juliani\t ...\tPrince Carlos (as Allessandro Juliani)\nRussell Roberts\t ...\tKing Regellius\nTabitha St. Germain\t ...\tWilla / Zee\nSam Vincent\t ...\tBoris\n\n\n\n.:General Info:. \n\nDirector:William Lau\nWriters: Elise Allen\nStars:Kelly Sheridan, Alistair Abell, Jane Barr\nRelease Date:27 August 2013 (USA)\nGenres: Animation | Family | Fantasy\n\n\n.:Video Info:. \n\nVideo\nID : 1\nFormat : AVC\nMuxing mode : Header stripping\nDuration : 1h 19mn\nWidth : 1 280 pixels\nHeight : 720 pixels\nDisplay aspect ratio : 16:9\nFrame rate : 23.976 fps\nChroma subsampling : 4:2:0\nScan type : Progressive\n\nAudio #1\nID : 2\nFormat : AAC\nFormat/Info : Advanced Audio Codec\nFormat profile : HE-AAC / LC\nCodec ID : A_AAC\nDuration : 1h 19mn\nChannel(s) : 2 channels\nChannel positions : Front: L R\nSampling rate : 48.0 KHz / 24.0 KHz\nCompression mode : Lossy\nLanguage : English\n\nAudio #2\nID : 3\nFormat : AC-3\nFormat/Info : Audio Coding 3\nMode extension : CM (complete main)\nMuxing mode : Header stripping\nCodec ID : A_AC3\nDuration : 1h 19mn\nBit rate mode : Constant\nBit rate : 224 Kbps\nChannel(s) : 2 channels\nChannel positions : Front: L R\nSampling rate : 48.0 KHz\nBit depth : 16 bits\nCompression mode : Lossy\nDelay relative to video : 1s 300ms\nStream size : 127 MiB (15%)\nLanguage : Hindi\n\nAudio #3\nID : 4\nFormat : AC-3\nFormat/Info : Audio Coding 3\nMode extension : CM (complete main)\nMuxing mode : Header stripping\nCodec ID : A_AC3\nDuration : 1h 19mn\nBit rate mode : Constant\nBit rate : 224 Kbps\nChannel(s) : 2 channels\nChannel positions : Front: L R\nSampling rate : 48.0 KHz\nBit depth : 16 bits\nCompression mode : Lossy\nDelay relative to video : 1s 300ms\nStream size : 127 MiB (15%)\nLanguage : Tamil\n\n\nSubtitle Languages : English\n\n\n\nScreen Shoots:-\n    &lt;a href=&quot;\nhttp://imageshack.us/a/img824/2986/hdiw.jpg&quot; rel=&quot;nofollow&quot; target=&quot;_NEW&quot;&gt;\nhttp://imageshack.us/a/img824/2986/hdiw.jpg&lt;/a&gt;\n &lt;a href=&quot;\nhttp://imageshack.us/a/img829/1296/xieo.jpg&quot; rel=&quot;nofollow&quot; target=&quot;_NEW&quot;&gt;\nhttp://imageshack.us/a/img829/1296/xieo.jpg&lt;/a&gt;\n &lt;a href=&quot;\nhttp://imageshack.us/a/img547/8789/84bb.jpg&quot; rel=&quot;nofollow&quot; target=&quot;_NEW&quot;&gt;\nhttp://imageshack.us/a/img547/8789/84bb.jpg&lt;/a&gt;\n\n\nNote:-- Check The Torrent\n\n\nCheck The Sample Video In This Torrent\t","torrent":{"xt":"urn:btih:e8472bba21ce0abf6edbdbde5981fdf721bb8c36","amp;dn":"Barbie+Mariposa+And+The+Fairy+Princess%5BHindi-Eng-Tam%5D-DGrea8","amp;tr":["udp%3A%2F%2Ftracker.openbittorrent.com%3A80","udp%3A%2F%2Fopen.demonii.com%3A1337","udp%3A%2F%2Ftracker.coppersurfer.tk%3A6969","udp%3A%2F%2Fexodus.desync.com%3A6969"],"infoHash":"e8472bba21ce0abf6edbdbde5981fdf721bb8c36","infoHashBuffer":{"type":"Buffer","data":[232,71,43,186,33,206,10,191,110,219,219,222,89,129,253,247,33,187,140,54]},"announce":[],"urlList":[]}}